<svg version="1.1" xmlns="http://www.w3.org/2000/svg" xmlns:xlink="http://www.w3.org/1999/xlink" width="50.17544" height="52" viewBox="0,0,50.17544,52"><g transform="translate(-226.5,-154.5)"><g fill="#960000" stroke="none" stroke-width="0.5" stroke-miterlimit="10"><path d="M272.11404,168.64035c0,-1.2596 1.0211,-2.2807 2.2807,-2.2807c1.2596,0 2.2807,1.0211 2.2807,2.2807c0,1.2596 -1.0211,2.2807 -2.2807,2.2807c-1.2596,0 -2.2807,-1.0211 -2.2807,-2.2807z"/><path d="M268.92105,187.34211c1.2596,0 2.2807,1.0211 2.2807,2.2807c0,1.2596 -1.0211,2.2807 -2.2807,2.2807c-0.73092,0 -1.38153,-0.34383 -1.79892,-0.87858c-0.30554,0.44331 -0.82756,0.82308 -1.7181,0.87475c-2.27687,0.1321 -2.40898,-2.14477 -2.40898,-2.14477l-0.15204,-2.67712c-0.24434,-1.45943 -0.48869,-2.91886 -0.73303,-4.37828c0,0 -0.37495,-2.24967 1.87473,-2.62462c2.24967,-0.37495 2.62462,1.87473 2.62462,1.87473c0.25558,1.54013 0.51116,3.08026 0.76675,4.6204l0.0773,1.30702c0.39665,-0.33382 0.90868,-0.53493 1.46769,-0.53493z"/><path d="M246.57018,197.83333c0,-1.2596 1.0211,-2.2807 2.2807,-2.2807c1.2596,0 2.2807,1.0211 2.2807,2.2807c0,1.2596 -1.0211,2.2807 -2.2807,2.2807c-1.2596,0 -2.2807,-1.0211 -2.2807,-2.2807z"/><path d="M237.44737,195.09649c0,-1.2596 1.0211,-2.2807 2.2807,-2.2807c1.2596,0 2.2807,1.0211 2.2807,2.2807c0,0.15621 -0.01571,0.30876 -0.04562,0.45614c0.02992,0.14738 0.04562,0.29993 0.04562,0.45614c0,1.2596 -1.0211,2.2807 -2.2807,2.2807c-1.2596,0 -2.2807,-1.0211 -2.2807,-2.2807c0,-0.15621 0.01571,-0.30876 0.04562,-0.45614c-0.02992,-0.14738 -0.04562,-0.29993 -0.04562,-0.45614z"/><path d="M231.97368,182.32456c0,-1.2596 1.0211,-2.2807 2.2807,-2.2807c1.2596,0 2.2807,1.0211 2.2807,2.2807c0,1.2596 -1.0211,2.2807 -2.2807,2.2807c-1.2596,0 -2.2807,-1.0211 -2.2807,-2.2807z"/><path d="M226.5,161.34211c0,-1.2596 1.0211,-2.2807 2.2807,-2.2807c1.2596,0 2.2807,1.0211 2.2807,2.2807c0,1.2596 -1.0211,2.2807 -2.2807,2.2807c-1.2596,0 -2.2807,-1.0211 -2.2807,-2.2807z"/><path d="M244.74561,156.7807c0,-1.2596 1.0211,-2.2807 2.2807,-2.2807c1.2596,0 2.2807,1.0211 2.2807,2.2807c0,1.2596 -1.0211,2.2807 -2.2807,2.2807c-1.2596,0 -2.2807,-1.0211 -2.2807,-2.2807z"/><path d="M231.97368,175.02632c0,-0.98739 0.42747,-1.5473 0.91228,-1.86481c0,-0.59477 0,-1.18954 0,-1.78431c0,0 0,-1.99421 1.86476,-2.25312c0.20053,-1.05473 1.12739,-1.85214 2.2405,-1.85214c1.2596,0 2.2807,1.0211 2.2807,2.2807c0,1.10338 -0.78354,2.02376 -1.82456,2.23508c0,1.07953 0,2.15907 0,3.2386l-3.19298,2.2807c0,0 -2.2807,0 -2.2807,-2.2807z"/><path d="M246.57018,204.2193c0,2.2807 -2.2807,2.2807 -2.2807,2.2807l-1.6335,-0.11704c-0.91228,-0.30409 -1.82456,-0.60819 -2.73684,-0.91228c0,0 -2.16366,-0.72122 -1.44244,-2.88488c0.72122,-2.16366 2.88488,-1.44244 2.88488,-1.44244c0.91228,0.30409 1.82456,0.60819 2.73684,0.91228l0.19106,-0.11704c0,0 2.2807,0 2.2807,2.2807z"/><path d="M261.83817,198.63793c1.01996,2.03992 -1.01996,3.05988 -1.01996,3.05988l-3.64912,1.82456c0,0 -2.03992,1.01996 -3.05988,-1.01996c-1.01996,-2.03992 1.01996,-3.05988 1.01996,-3.05988l3.64912,-1.82456c0,0 2.03992,-1.01996 3.05988,1.01996z"/><path d="M257.73542,170.19546c4.24819,-2.51711 7.95918,-0.47326 11.90685,0.84263c0,0 2.16366,0.72122 1.44244,2.88488c-0.02247,0.0674 -0.04633,0.132 -0.07149,0.19391c0.12128,0.27862 0.18853,0.58617 0.18853,0.90943c0,1.2596 -1.0211,2.2807 -2.2807,2.2807c-1.2596,0 -2.2807,-1.0211 -2.2807,-2.2807c0,-0.08833 0.00502,-0.17548 0.01479,-0.2612c-1.72413,-0.70508 -3.86536,-1.55844 -5.53981,-1.13448c0.03362,0.15581 0.05133,0.31753 0.05133,0.4834c0,1.02595 -0.67742,1.89368 -1.60937,2.18029l-0.26341,0.0878c0.0316,0.15129 0.04822,0.30808 0.04822,0.46875c0,0.57965 -0.21624,1.1088 -0.57246,1.51116c0.8671,0.32296 1.48474,1.15833 1.48474,2.13796c0,0.82144 -0.43427,1.54146 -1.08576,1.94298c0.29679,1.71411 0.05832,3.53633 -0.97072,5.44502c-0.7395,1.37163 -1.48367,2.90724 -2.79718,3.74565c-0.93982,0.59988 -2.2134,0.18873 -3.33621,0.2343l-2.44191,0.81397c-0.24103,0.08665 -0.50086,0.13387 -0.77173,0.13387c-1.2596,0 -2.2807,-1.0211 -2.2807,-2.2807c0,-0.47924 0.14781,-0.92396 0.40034,-1.29105l0.65977,-0.98965h-2.42853c-0.81067,0 -1.52256,-0.42296 -1.92702,-1.06024c-0.25166,0.09561 -0.52463,0.14796 -0.80982,0.14796c-0.86439,0 -1.61646,-0.48086 -2.00331,-1.18968c-0.70881,-0.38685 -1.18968,-1.13892 -1.18968,-2.00331c0,-0.38306 0.09444,-0.74406 0.2613,-1.061l0.69794,-1.39589c0.06932,-0.20861 0.16885,-0.3948 0.27799,-0.55598l0.39691,-0.79382c-0.10683,-0.0994 -0.20453,-0.20985 -0.29136,-0.33345c-2.45287,-3.49164 0.71416,-10.67128 4.42233,-12.06783c-0.17709,-0.10621 -0.3564,-0.24565 -0.5357,-0.42495c-1.6127,-1.6127 0,-3.2254 0,-3.2254c0.60819,-0.60819 2.12865,-2.12865 2.73684,-2.73684c0,0 1.6127,-1.6127 3.2254,0c1.6127,1.6127 0,3.2254 0,3.2254c-0.60819,0.60819 -1.21637,1.21637 -1.82456,1.82456l-0.34481,0.34481l1.70403,-0.48686c0.21395,-0.06644 0.4414,-0.10222 0.67721,-0.10222c1.2596,0 2.2807,1.0211 2.2807,2.2807c0,0.6298 -0.25528,1.19997 -0.668,1.6127l-1.37743,1.37743c0.53261,0.50289 1.03996,1.04933 1.57572,1.54349c0.35834,-0.13127 0.7275,-0.23208 1.11028,-0.29493c0.12653,-0.02077 0.25319,-0.03829 0.37996,-0.0528l-0.01081,-0.05405l1.7945,-0.3589c0.53019,-0.88246 1.11327,-1.70721 1.97506,-2.21783zM253.16697,187.64908c0.02741,-0.01089 0.05456,-0.02322 0.08142,-0.03711c0.56782,-0.29351 1.01269,-1.28082 1.25579,-2.33981c-0.20784,0.42417 -0.57188,0.85153 -1.20955,1.04727c-0.05153,0.44162 -0.06018,0.89937 -0.12766,1.32964zM245.5963,175.51145c0.09689,0.02166 0.18834,0.04784 0.27294,0.07605c0.01275,-0.28503 0.01995,-0.57422 0.0231,-0.86336c-0.13951,0.24142 -0.23653,0.53185 -0.29605,0.78731z"/></g></g></svg>