<svg version="1.1" xmlns="http://www.w3.org/2000/svg" xmlns:xlink="http://www.w3.org/1999/xlink" width="120.16545" height="24.47515" viewBox="0,0,120.16545,24.47515"><g transform="translate(-246.9916,-165.07858)"><g stroke-width="0.5" stroke-miterlimit="10"><path d="M293.00199,167.89108l-1.28711,-1.51935l3.29841,-0.3698c0,0 0.90481,0.67355 0.88939,0.93383c-0.00344,0.05811 -0.02481,0.83903 -0.30368,0.94107c-0.82133,0.30051 -2.597,0.01425 -2.597,0.01425z" fill="#ded9da" stroke="#000000" stroke-linecap="butt"/><path d="M279.40537,173.918c0.59721,-1.32508 1.73508,-2.48841 1.73508,-2.48841c0,0 0.51074,0.35157 1.24002,-0.08107c1.56951,-0.93112 7.88139,-5.1291 7.88139,-5.1291c0,0 0.47094,-0.457 0.83833,-0.291c0.48858,0.22077 0.91041,1.09283 0.9294,1.22649c0.01162,0.08179 0.76874,0.91723 1.64,1.03976c1.33158,0.18726 2.96684,-0.30885 2.90546,-0.00578c-0.02085,0.10295 0.67855,0.79378 2.15531,1.25505c0.92805,0.28988 2.627,0.20642 3.19711,0.71304c1.08625,0.96529 -0.14046,2.88057 -0.14046,2.88057c0,0 -5.04092,-0.6576 -6.40537,-0.79217c-1.59861,-0.15766 -3.60443,-0.08013 -3.60443,-0.08013c0,0 -2.83483,0.93553 -4.24842,1.86752c-3.28663,2.16691 -6.99204,5.51681 -7.52533,5.6512c-0.04768,0.01201 -1.55576,-0.03502 -1.74656,-1.44221c-0.17288,-1.27502 0.95677,-3.89842 1.14846,-4.32374z" fill="#92847a" stroke="#000000" stroke-linecap="butt"/><path d="M295.55136,168.99681c0,0 0.22473,-0.86519 0.24193,-1.4335c0.0106,-0.35007 -0.49495,-1.0516 -0.49495,-1.0516l71.03862,-1.18189c0,0 0.97299,0.63426 0.37667,1.83844c-0.11926,0.24083 -0.56872,1.24245 -0.56872,1.24245z" fill="#332d2c" stroke="#000000" stroke-linecap="butt"/><path d="M302.12562,172.91195c0,0 0.44882,-0.89492 0.48268,-1.56087c0.01,-0.19675 -0.13524,-1.10844 -1.40587,-1.66242c-0.53872,-0.23487 -1.20276,0.02134 -1.89261,-0.07894c-0.98881,-0.14375 -1.86981,-0.84203 -1.88891,-1.03336c-0.06951,-0.69641 4.93953,-0.28266 4.93953,-0.28266l19.25579,0.39138c0,0 1.25241,2.45926 1.25241,2.8962c0,0.65019 -1.09586,1.56551 -1.09586,1.56551c0,0 0.07013,-0.00197 -0.16024,-0.00472c-1.6082,-0.01922 -19.48693,-0.23011 -19.48693,-0.23011z" fill="#6d4237" stroke="#000000" stroke-linecap="butt"/><path d="M322.72146,172.27747c0,0 -0.12786,-1.13195 -0.11495,-1.70013c0.00796,-0.34999 -0.56509,-1.50237 -0.56509,-1.50237l43.99185,-0.4184c0,0 1.05913,0.69331 0.691,1.89324c-0.07362,0.23999 -1.21253,0.9253 -1.21253,0.9253z" fill="#332d2c" stroke="#000000" stroke-linecap="butt"/><path d="M247.25444,189.11499l0.86103,-12.68064h15.57684c0,0 8.30786,-8.04496 10.28841,-7.76768c0.17493,0.02449 7.1908,2.69353 7.1908,2.69353c0,0 -1.62508,1.4516 -1.74505,2.51961c-0.06722,0.59841 -0.92755,2.06358 -1.23719,3.01941c-0.40939,1.26377 -0.282,1.97788 -0.282,1.97788l-2.47363,-0.79896c0,0 -12.08377,6.23518 -17.17758,8.08363c-1.15929,0.42069 -2.64451,1.20867 -3.97361,1.73688c-1.53234,0.60899 -2.90871,0.95 -4.1833,1.25143c-1.54385,0.36511 -2.84473,-0.03508 -2.84473,-0.03508z" fill="#895013" stroke="#000000" stroke-linecap="butt"/><path d="M248.11548,178.70434v-5.24446c0,0 4.97687,-1.95689 7.43618,-1.95689c2.83573,0 17.84683,-2.73965 17.84683,-2.73965c0,0 3.50072,5.06216 2.48001,6.16072c-0.72738,0.78286 -2.82471,2.76278 -5.16394,3.4282c-1.17272,0.3336 -3.25766,1.71 -5.79501,2.61449c-4.21753,1.50342 -9.13306,2.66895 -9.13306,2.66895c0,0 -6.74059,2.36492 -8.1107,1.48413c-1.14704,-0.73738 0.4397,-6.41549 0.4397,-6.41549z" fill="#351c01" stroke="#000000" stroke-linecap="butt"/><path d="M287.53165,167.86488l0.39225,-1.88318l1.48429,0.71925z" fill="#ded9da" stroke="#000000" stroke-linecap="butt"/><path d="M288.47548,175.22217c0.40047,0.54148 1.46276,1.7007 1.03103,2.01999c-0.43172,0.3193 -1.99622,-0.5859 -2.39669,-1.12739c-0.15856,-0.21438 -0.93864,-0.88192 -0.93864,-0.88192l0.63269,-0.51187c0,0 0.34267,-0.42609 0.60722,-0.60852c0.30675,-0.21153 1.12548,-0.58634 1.12548,-0.58634c0,0 -0.14113,0.31852 -0.1861,0.69775c-0.04858,0.40968 0.04169,0.88563 0.125,0.99828z" fill="#70655b" stroke="#000000" stroke-linecap="butt"/><path d="M294.7633,172.27379c0,0 1.31536,1.48317 1.08946,2.40639c-0.26627,1.0882 -1.10041,1.99749 -1.7478,2.37395c-0.60181,0.34995 -1.9704,0.84597 -3.18914,0.74812c-1.39401,-0.11192 -2.61231,-0.84841 -2.61231,-0.84841" fill="none" stroke="#000000" stroke-linecap="round"/><path d="M290.08324,174.36663c-0.00637,0.59556 1.93623,1.79622 1.15354,1.79622c-0.7827,0 -2.30707,-1.07378 -2.30707,-1.82917c0,-0.36602 -0.18061,-0.86325 0.06201,-1.10873c0.2581,-0.26113 0.754,-0.58862 1.15745,-0.58862c0.69768,0 -0.05777,0.96914 -0.06591,1.7303z" fill="#cac0b9" stroke="#000000" stroke-linecap="butt"/><path d="M287.05781,173.71328c0,0.15655 -0.15655,0.15655 -0.15655,0.15655l-0.21506,-0.04586c-0.19794,-0.19794 -0.37106,-0.45705 -0.60235,-0.60664c0,0 -0.13026,-0.08684 -0.04342,-0.2171c0.01497,-0.02247 0.03125,-0.03847 0.04792,-0.04958c-0.0406,0.0041 -0.0811,0.009 -0.12139,0.01485c0.05652,0.25001 0.09937,0.49984 0.09937,0.74778v0.05218c0,0 0,0.15655 -0.15655,0.15655c-0.15655,0 -0.15655,-0.15655 -0.15655,-0.15655v-0.05218c0,-0.19764 -0.02487,-0.39389 -0.06157,-0.58926c-0.24347,0.11868 -0.41222,0.33215 -0.67168,0.42468l-0.15655,0.05219c0,0 -0.0428,0.01426 -0.0901,0.0045c0.05744,0.21921 0.13034,0.43857 0.27523,0.64726l0.10437,0.15655c0,0 0.08684,0.13026 -0.04342,0.2171c-0.13026,0.08684 -0.2171,-0.04342 -0.2171,-0.04342l-0.10437,-0.15655c-0.11169,-0.17258 -0.37309,-0.86702 -0.49756,-1.33499c-0.11285,0.41308 -0.36367,0.75016 -0.36367,1.24815c0,0.22999 0.14216,2.04573 -0.08268,2.12101c-0.39097,0.13089 -0.9327,-1.68326 -1.09881,-2.65978c-0.17283,0.61796 -0.54646,1.20544 -0.54058,1.89555c0,0 0,0.15655 -0.15655,0.15655c-0.15655,0 -0.15655,-0.15655 -0.15655,-0.15655c0.00588,-0.88077 0.63312,-1.6426 0.6262,-2.45263v-0.15655c0,-0.08646 0.07009,-0.15655 0.15655,-0.15655c0.0664,0 0.12315,0.04134 0.14591,0.09969l0.11903,0.28567l-0.04084,0.01701c0.33531,0.64163 0.41271,1.36968 0.62644,2.08025c0.00974,0.0324 0.06229,0.15866 0.11209,0.30008c-0.02239,-0.50564 -0.02332,-1.25261 -0.02332,-1.37374c0,-0.6356 0.42628,-1.04494 0.41747,-1.6177v-0.20873c0,-0.08646 0.07009,-0.15655 0.15655,-0.15655c0.05521,0 0.10373,0.02857 0.1316,0.07173l0.10302,0.15453l-0.03276,0.02184c0.17847,0.22601 0.25316,0.47627 0.31722,0.73294c0.02825,-0.02391 0.0576,-0.0337 0.0576,-0.0337l0.15655,-0.05218c0.04918,-0.01464 0.0959,-0.03534 0.14109,-0.06007c-0.00446,-0.00539 -0.00884,-0.01127 -0.01311,-0.01768c-0.08684,-0.13026 0.04341,-0.2171 0.04341,-0.2171c0.16054,-0.1055 0.33299,-0.17907 0.51215,-0.23001c-0.0362,-0.15044 -0.07419,-0.30058 -0.10793,-0.45066l-0.06278,-0.01767c-0.14428,-0.1537 -0.20521,-0.16464 -0.41114,-0.16288c0,0 -0.15655,0 -0.15655,-0.15655c0,-0.15655 0.15655,-0.15655 0.15655,-0.15655c0.17098,0.00114 0.2866,0.01912 0.3956,0.07467c-0.03845,-0.27996 -0.04263,-0.56051 0.02654,-0.84321c0,0 0.03797,-0.15187 0.18985,-0.11391c0.15188,0.03797 0.11391,0.18985 0.11391,0.18985c-0.08419,0.32841 -0.05541,0.66468 0.01143,1.00439l0.11556,-0.07704c0.38926,-0.25592 1.40061,-0.79982 1.5641,-1.19189c0,0 0.07002,-0.14003 0.21004,-0.07002c0.14002,0.07002 0.07001,0.21004 0.07001,0.21004c-0.27298,0.49466 -1.1806,0.99034 -1.6713,1.31293l-0.15614,0.10409c0,0 -0.0259,0.01726 -0.06229,0.02485c0.02077,0.08532 0.04249,0.17077 0.06399,0.25629c0.22863,-0.03661 0.46332,-0.04611 0.69422,-0.04611h0.10437c0,0 0.15655,0 0.15655,0.15655c0,0.15655 -0.15655,0.15655 -0.15655,0.15655h-0.10437c-0.12026,0 -0.24297,0.00176 -0.36562,0.00932c0.02137,0.00788 0.03499,0.01696 0.03499,0.01696c0.25153,0.17152 0.433,0.4287 0.65006,0.64577l-0.00633,-0.04585c0,0 0.15655,0 0.15655,0.15655z" fill="#000000" stroke="none" stroke-linecap="butt"/><path d="M288.00011,171.99678c0.05058,-0.01356 0.0987,0.00247 0.0987,0.00247c0.10277,0.03591 0.30216,0.01412 0.51562,-0.01214c0.02529,-0.02414 0.05157,-0.03541 0.05157,-0.03541l0.14141,-0.05549c0.01622,-0.02108 0.0318,-0.04159 0.04676,-0.06154c-0.18132,0 -0.36264,0 -0.54395,0c0,0 -0.15655,0 -0.15655,-0.15655c0,-0.00353 0.00008,-0.00699 0.00024,-0.01036c-0.04609,0.11083 -0.09601,0.21379 -0.1539,0.30844c0.00059,0.00703 0.00059,0.01391 0.00011,0.02058zM289.39325,172.02077c0.30971,0.37327 -1.47289,1.17459 -1.80237,0.38026c-0.09409,0.06028 -0.20193,0.11246 -0.32701,0.15617l-0.08386,0.04369c0,0 -0.14002,0.07001 -0.21004,-0.07001c-0.07002,-0.14002 0.07001,-0.21004 0.07001,-0.21004l0.12488,-0.06067c0.63619,-0.20457 0.71344,-0.71789 0.94467,-1.41432c0,0 0.00515,-0.01546 0.01713,-0.03475c-0.29697,-0.02142 -0.58075,-0.07541 -0.82574,-0.19319c0,0 -0.14003,-0.07002 -0.07002,-0.21004c0.07002,-0.14002 0.21004,-0.07002 0.21004,-0.07002c0.29948,0.15777 0.70261,0.18914 1.11095,0.18301c-0.01093,-0.01423 -0.01639,-0.02515 -0.01639,-0.02515l-0.08454,-0.17844c-0.13136,-0.09475 -0.26163,-0.191 -0.39121,-0.28817c0,0 -0.12524,-0.09393 -0.03131,-0.21917c0.09393,-0.12524 0.21917,-0.03131 0.21917,-0.03131c0.14875,0.11156 0.29657,0.22439 0.44373,0.33804l0.1242,0.23903c0,0 0.0431,0.0862 -0.00596,0.15715c0.06103,-0.0027 0.12172,-0.00583 0.18171,-0.00908c-0.00701,-0.04395 -0.0073,-0.13716 0.10437,-0.17439c0.14852,-0.04951 0.19802,0.09901 0.19802,0.09901c0.00656,0.01968 0.01294,0.03903 0.01914,0.05809c0.106,-0.00505 0.20741,-0.00858 0.302,-0.00858l0.03436,-0.03566c0,0 0.14002,-0.07001 0.21004,0.07002c0.07002,0.14002 -0.07002,0.21004 -0.07002,0.21004l-0.17438,0.06871c-0.06896,0 -0.13989,0.0013 -0.21235,0.00339c0.02054,0.08382 0.03546,0.16157 0.0442,0.23523c0.30579,0.07823 0.55436,0.21706 0.4986,0.43611c0.06494,0.0044 0.12883,0.00583 0.19139,0.00366h0.05218c0,0 0.14528,0 0.15594,0.13995c0.02902,0.02272 0.0528,0.05996 0.0528,0.12097c0,0.15655 -0.15655,0.15655 -0.15655,0.15655c-0.19134,0 -0.38268,0 -0.57402,0h-0.10437c0,0 -0.00003,0 -0.00008,0l-0.16691,0.12525c0,0 -0.00221,0.00165 -0.00626,0.00423c0.00133,0.00146 0.00262,0.00294 0.00386,0.00445zM287.8907,172.15416l-0.06204,0.05352c0.03263,0.32175 0.41822,0.22471 0.7773,0.10851c-0.27499,0.0072 -0.54918,-0.00159 -0.60615,-0.01991c0,0 -0.11039,-0.0368 -0.1091,-0.14212zM289.15422,171.94353c-0.00003,0.00004 -0.00006,0.00008 -0.00009,0.00011c0.00005,0 0.00009,0 0.00014,0.00001c-0.00002,-0.00004 -0.00004,-0.00008 -0.00006,-0.00012zM288.40034,170.82247c0.02765,0.05809 0.00622,0.12239 0.00622,0.12239c-0.01971,0.05892 -0.03869,0.11658 -0.05724,0.17296c0.09501,0.01773 0.19228,0.03973 0.29096,0.06399c-0.01041,-0.02025 -0.01695,-0.04571 -0.01695,-0.07772c0,-0.15655 0.15655,-0.15655 0.15655,-0.15655c0.10177,0 0.22293,0.00725 0.34814,0.02295c-0.01077,-0.05084 -0.02498,-0.10505 -0.04223,-0.16402c-0.22417,0.00956 -0.45636,0.0194 -0.68545,0.016zM288.31022,171.52156c0.14217,0 0.28433,0 0.4265,0c-0.16349,-0.03953 -0.32653,-0.07623 -0.48819,-0.10376c-0.01814,0.05174 -0.03644,0.10212 -0.05521,0.1511c0.04638,-0.04733 0.1169,-0.04733 0.1169,-0.04733zM288.939,171.25929c0.0661,0.01763 0.13244,0.03539 0.19879,0.05273c0.00354,-0.01675 0.0064,-0.03348 0.0086,-0.05029c-0.07309,-0.00241 -0.14483,-0.00274 -0.20739,-0.00244zM289.62719,171.42446c0.0267,-0.07034 -0.05454,-0.11113 -0.1775,-0.13458c-0.00356,0.03198 -0.00869,0.0636 -0.01544,0.09507c0.06472,0.01457 0.12912,0.02791 0.19295,0.03951z" fill="#000000" stroke="none" stroke-linecap="butt"/><path d="M293.69147,171.52789c-0.11069,0.11069 -0.2214,0 -0.2214,0l0.00901,-0.01437c-0.1949,-0.06557 -0.84126,-0.54634 -1.08146,-0.63889c0.01656,0.21918 0.03321,0.42474 0.03511,0.59474l0.01783,-0.08784c0,0 0.14003,0.07002 0.07002,0.21004c-0.07002,0.14002 -0.21004,0.07001 -0.21004,0.07001l-0.19091,-0.19221c0.00297,-0.19319 -0.01173,-0.41413 -0.02701,-0.64543c-0.04189,-0.06405 -0.03136,-0.1175 -0.01006,-0.15513c-0.0033,-0.05278 -0.00643,-0.1059 -0.00922,-0.15914c-0.00275,-0.00004 -0.0055,-0.00008 -0.00825,-0.00012c-0.01955,0.12487 -0.1542,0.12488 -0.1542,0.12488c-0.27507,0 -0.89205,0.18874 -1.15532,0.26785c0.04626,0.01266 0.11165,0.04844 0.11165,0.14962c0,0.15655 -0.15655,0.15655 -0.15655,0.15655l-0.10169,-0.00803c-0.64846,-0.343 -0.02842,-0.61736 0.57138,-0.76349c-0.01455,-0.13667 0.12581,-0.16474 0.12581,-0.16474c0.21791,-0.04296 0.48868,-0.07635 0.75641,-0.07237c-0.00773,-0.60922 0.08122,-1.18495 0.56106,-1.42747c0,0 0.14002,-0.07001 0.21004,0.07002c0.07002,0.14002 -0.07002,0.21004 -0.07002,0.21004c-0.33486,0.16587 -0.40645,0.64735 -0.40043,1.16965c0.1881,0.02658 0.36322,0.07876 0.50356,0.16738l0.13728,0.0443c0,0 0.14852,0.04951 0.09902,0.19802c-0.04951,0.14852 -0.19802,0.09902 -0.19802,0.09902l-0.17583,-0.06007c-0.09452,-0.06749 -0.2179,-0.10991 -0.35466,-0.13421c0.00034,0.00623 0.00071,0.01246 0.00106,0.01869c0.4041,0.01478 0.78264,0.52289 1.20245,0.66132l0.11337,0.09c0,0 0.11069,0.1107 0,0.2214z" fill="#000000" stroke="none" stroke-linecap="butt"/><path d="M298.03292,171.74812c-0.05577,-0.11154 0.02174,-0.17866 0.05558,-0.20134c-0.32938,-1.08315 -0.25115,-1.61092 -0.86606,-0.07144c-0.61567,1.3699 -0.84524,-0.87639 -0.83803,-1.17448c-0.03303,0.1342 -0.1999,0.64577 -0.22092,0.68162c-0.19384,0.33053 -0.46519,0.68643 -0.67422,1.03711c0,0 -0.08054,0.13424 -0.21479,0.0537c-0.13424,-0.08054 -0.0537,-0.21479 -0.0537,-0.21479c0.12845,-0.21251 0.91619,-1.94541 1.18765,-1.90213c0.51525,0.08215 0.3254,2.01404 0.52331,1.4027c0.73716,-1.84037 1.0309,-1.13847 1.4941,0.21737l-0.18287,0.24171c0,0 -0.14002,0.07001 -0.21004,-0.07001z" fill="#000000" stroke="none" stroke-linecap="butt"/></g></g></svg>