<svg version="1.1" xmlns="http://www.w3.org/2000/svg" xmlns:xlink="http://www.w3.org/1999/xlink" width="75.41179" height="136.72562" viewBox="0,0,75.41179,136.72562"><g transform="translate(-185.0724,-95.0838)"><g stroke-miterlimit="10"><path d="M223.94406,225.24v-53.20336h30.62628v53.20336z" fill="#539f41" stroke="#000000" stroke-width="3" stroke-linecap="butt"/><path d="M257.38086,155.88981c0,10.94723 -8.55372,19.82171 -19.10526,19.82171c-10.55155,0 -19.10526,-8.87448 -19.10526,-19.82171c0,-10.94723 8.55371,-19.82171 19.10526,-19.82171c10.55155,0 19.10526,8.87448 19.10526,19.82171z" fill="#5aaf47" stroke="#000000" stroke-width="5" stroke-linecap="butt"/><path d="M226.8889,164.03719v-18.25798h2.94483v18.25798z" fill="#bb0000" stroke="none" stroke-width="0" stroke-linecap="butt"/><path d="M233.06683,164.12913v-18.25798h2.94483v18.25798z" fill="#bb0000" stroke="none" stroke-width="0" stroke-linecap="butt"/><path d="M218.96462,151.77576v-48.44475h40.01957v48.44475z" fill="#bfbfbf" stroke="#000000" stroke-width="3" stroke-linecap="butt"/><path d="M188.65083,98.0838l-0.57843,130.72562" fill="none" stroke="#000000" stroke-width="6" stroke-linecap="round"/><path d="M209.47438,171.54466c0,4.79189 -4.40254,8.67648 -9.83334,8.67648c-5.43081,0 -9.83334,-3.88459 -9.83334,-8.67648c0,-4.79189 4.40254,-8.67648 9.83334,-8.67648c5.43081,0 9.83334,3.88459 9.83334,8.67648z" fill="#539f41" stroke="#000000" stroke-width="3" stroke-linecap="butt"/></g></g></svg>